<?xml version="1.0" encoding="UTF-8"?><svg id="Layer_2" xmlns="http://www.w3.org/2000/svg" viewBox="0 0 82.37 82.57"><defs><style>.cls-1{fill:#aa9587;}.cls-2{stroke:#aa9587;stroke-miterlimit:10;stroke-width:6px;}</style></defs><g id="Layer_1-2"><path class="cls-2" d="m3.48,3.72S-1.35,30.53,19.74,48.1c-3,18.23,10.07,25.22,21.09,28.12l2.28-2.28,1.24-15.3c7.47.23,13.71-7.35,14.06-14.06l15.82-1.76,1.76-1.76c-1.47-9.81-10.36-24.57-28.12-21.09,0,0-17.58-21.09-44.38-16.26Z"/><polygon class="cls-1" points="79.56 79.76 69.71 75.01 61.82 82.57 63.29 71.74 53.66 66.56 64.41 64.61 66.36 53.86 71.54 63.48 82.37 62.01 74.81 69.91 79.56 79.76"/></g></svg>