<?xml version="1.0" encoding="UTF-8"?><svg id="Layer_2" xmlns="http://www.w3.org/2000/svg" viewBox="0 0 63.81 112.8"><defs><style>.cls-1{stroke-width:4px;}.cls-1,.cls-2{fill:none;stroke:#000;stroke-miterlimit:10;}.cls-2{stroke-width:5px;}</style></defs><g id="Layer_1-2"><path class="cls-2" d="m31.9,3.04S10.22,18.11,12.63,44.61c0,0-8.47,7.37-9.64,12.05-2.41,9.64,4.82,21.68,4.82,21.68h3.12l11.34-9.64s4.82,5.38,9.64,5.1,9.64-5.1,9.64-5.1l12.05,9.64h2.41s7.23-9.64,4.82-21.68c-.95-4.73-9.64-12.05-9.64-12.05,0,0,2.41-26.5-19.27-41.57Z"/><polygon class="cls-1" points="31.9 106.74 35.24 97.18 45.36 96.96 37.31 90.83 40.22 81.14 31.9 86.9 23.59 81.14 26.5 90.83 18.44 96.96 28.56 97.18 31.9 106.74"/></g></svg>