<?xml version="1.0" encoding="UTF-8"?><svg id="Layer_2" xmlns="http://www.w3.org/2000/svg" viewBox="0 0 32.93 33.01"><defs><style>.cls-1{fill:none;stroke:#aa9587;stroke-miterlimit:10;stroke-width:2px;}.cls-2{fill:#aa9587;}</style></defs><g id="Layer_1-2"><path class="cls-1" d="m1.19,1.29S-.75,12.07,7.73,19.15c-1.21,7.34,4.05,10.15,8.49,11.31l.92-.92.5-6.16c3,.09,5.52-2.96,5.66-5.66l6.36-.71.71-.71c-.59-3.95-4.17-9.89-11.31-8.49C19.05,7.83,11.98-.65,1.19,1.29Z"/><polygon class="cls-2" points="31.8 31.88 27.84 29.97 24.66 33.01 25.25 28.65 21.38 26.57 25.71 25.79 26.49 21.46 28.57 25.33 32.93 24.74 29.89 27.92 31.8 31.88"/></g></svg>